<svg xmlns="http://www.w3.org/2000/svg" xmlns:xlink="http://www.w3.org/1999/xlink" contentStyleType="text/css" data-diagram-type="DESCRIPTION" height="1933.3333px" preserveAspectRatio="none" style="width:5077px;height:1933px;background:#FFFFFF;" version="1.1" viewBox="0 0 5077 1933" width="5077.0833px" zoomAndPan="magnify"><title>Arquitectura de Soluci&#243;n - Reto Gas Natural</title><defs/><g><g class="title" data-source-line="10"><text fill="#000000" font-family="sans-serif" font-size="29.1667" font-weight="bold" lengthAdjust="spacing" textLength="722.0317" x="2163.4353" y="47.9065">Arquitectura de Soluci&#243;n - Reto Gas Natural</text></g><!--cluster Proceso ETL--><g class="cluster" data-entity="Proceso ETL" data-source-line="16" data-uid="ent0005" id="cluster_Proceso ETL"><path d="M535.9792,444.556 L716.0553,444.556 A23.4375,23.4375 0 0 1 731.6803,460.181 L746.2636,491.0078 L2702.6458,491.0078 A15.625,15.625 0 0 1 2718.2708,506.6328 L2718.2708,705.181 A15.625,15.625 0 0 1 2702.6458,720.806 L535.9792,720.806 A15.625,15.625 0 0 1 520.3542,705.181 L520.3542,460.181 A15.625,15.625 0 0 1 535.9792,444.556" fill="none" style="stroke:#000000;stroke-width:3.125;"/><line style="stroke:#000000;stroke-width:3.125;" x1="520.3542" x2="746.2636" y1="491.0078" y2="491.0078"/><text fill="#000000" font-family="sans-serif" font-size="29.1667" font-weight="bold" lengthAdjust="spacing" textLength="198.8261" x="528.6875" y="475.7958">Proceso ETL</text></g><!--cluster Supabase--><g class="cluster" data-entity="Supabase" data-source-line="27" data-uid="ent0013" id="cluster_Supabase"><path d="M3383.8958,937.1602 L3819.5648,937.1602 A23.4375,23.4375 0 0 1 3835.1898,952.7852 L3849.7731,983.612 L4173.4792,983.612 A15.625,15.625 0 0 1 4189.1042,999.237 L4189.1042,1614.8268 A15.625,15.625 0 0 1 4173.4792,1630.4518 L3383.8958,1630.4518 A15.625,15.625 0 0 1 3368.2708,1614.8268 L3368.2708,952.7852 A15.625,15.625 0 0 1 3383.8958,937.1602" fill="none" style="stroke:#000000;stroke-width:3.125;"/><line style="stroke:#000000;stroke-width:3.125;" x1="3368.2708" x2="3849.7731" y1="983.612" y2="983.612"/><text fill="#000000" font-family="sans-serif" font-size="29.1667" font-weight="bold" lengthAdjust="spacing" textLength="454.4189" x="3376.6042" y="968.4">Almacenamiento y Backend</text></g><!--cluster Frontend--><g class="cluster" data-entity="Frontend" data-source-line="36" data-uid="ent0019" id="cluster_Frontend"><path d="M4254.7292,937.1602 L4386.4552,937.1602 A23.4375,23.4375 0 0 1 4402.0802,952.7852 L4416.6636,983.612 L4652.6458,983.612 A15.625,15.625 0 0 1 4668.2708,999.237 L4668.2708,1197.7643 A15.625,15.625 0 0 1 4652.6458,1213.3893 L4254.7292,1213.3893 A15.625,15.625 0 0 1 4239.1042,1197.7643 L4239.1042,952.7852 A15.625,15.625 0 0 1 4254.7292,937.1602" fill="none" style="stroke:#000000;stroke-width:3.125;"/><line style="stroke:#000000;stroke-width:3.125;" x1="4239.1042" x2="4416.6636" y1="983.612" y2="983.612"/><text fill="#000000" font-family="sans-serif" font-size="29.1667" font-weight="bold" lengthAdjust="spacing" textLength="150.4761" x="4247.4375" y="968.4">Frontend</text></g><!--cluster Hosting--><g class="cluster" data-entity="Hosting" data-source-line="40" data-uid="ent0021" id="cluster_Hosting"><path d="M4585.9792,444.556 L4993.4926,444.556 A23.4375,23.4375 0 0 1 5009.1176,460.181 L5023.7009,491.0078 L5013.0625,491.0078 A15.625,15.625 0 0 1 5028.6875,506.6328 L5028.6875,705.181 A15.625,15.625 0 0 1 5013.0625,720.806 L4585.9792,720.806 A15.625,15.625 0 0 1 4570.3542,705.181 L4570.3542,460.181 A15.625,15.625 0 0 1 4585.9792,444.556" fill="none" style="stroke:#000000;stroke-width:3.125;"/><line style="stroke:#000000;stroke-width:3.125;" x1="4570.3542" x2="5023.7009" y1="491.0078" y2="491.0078"/><text fill="#000000" font-family="sans-serif" font-size="29.1667" font-weight="bold" lengthAdjust="spacing" textLength="426.2634" x="4578.6875" y="475.7958">Plataforma de Despliegue</text></g><!--cluster Monitoring--><g class="cluster" data-entity="Monitoring" data-source-line="44" data-uid="ent0023" id="cluster_Monitoring"><path d="M717.2292,937.1602 L941.4113,937.1602 A23.4375,23.4375 0 0 1 957.0363,952.7852 L971.6196,983.612 L1206.8125,983.612 A15.625,15.625 0 0 1 1222.4375,999.237 L1222.4375,1614.8268 A15.625,15.625 0 0 1 1206.8125,1630.4518 L717.2292,1630.4518 A15.625,15.625 0 0 1 701.6042,1614.8268 L701.6042,952.7852 A15.625,15.625 0 0 1 717.2292,937.1602" fill="none" style="stroke:#000000;stroke-width:3.125;"/><line style="stroke:#000000;stroke-width:3.125;" x1="701.6042" x2="971.6196" y1="983.612" y2="983.612"/><text fill="#000000" font-family="sans-serif" font-size="29.1667" font-weight="bold" lengthAdjust="spacing" textLength="242.9321" x="709.9375" y="968.4">Monitorizaci&#243;n</text></g><!--entity Detector--><g class="entity" data-entity="Detector" data-source-line="17" data-uid="ent0006" id="entity_Detector"><rect fill="#F1F1F1" height="130.4036" rx="15.625" ry="15.625" style="stroke:#181818;stroke-width:1.0417;" width="410.9314" x="1881.5625" y="557.056"/><rect fill="#F1F1F1" height="20.8333" style="stroke:#181818;stroke-width:1.0417;" width="31.25" x="2250.8272" y="567.4727"/><rect fill="#F1F1F1" height="4.1667" style="stroke:#181818;stroke-width:1.0417;" width="8.3333" x="2246.6606" y="571.6393"/><rect fill="#F1F1F1" height="4.1667" style="stroke:#181818;stroke-width:1.0417;" width="8.3333" x="2246.6606" y="579.9727"/><text fill="#000000" font-family="sans-serif" font-size="29.1667" lengthAdjust="spacing" textLength="327.5981" x="1912.8125" y="625.7958">Detecci&#243;n de Cambios</text><text fill="#0000FF" font-family="sans-serif" font-size="29.1667" lengthAdjust="spacing" textLength="204.067" x="1912.8125" y="659.7476">BeautifulSoup</text></g><!--entity Extractor--><g class="entity" data-entity="Extractor" data-source-line="18" data-uid="ent0007" id="entity_Extractor"><rect fill="#F1F1F1" height="130.4036" rx="15.625" ry="15.625" style="stroke:#181818;stroke-width:1.0417;" width="382.6904" x="1143.6042" y="557.056"/><rect fill="#F1F1F1" height="20.8333" style="stroke:#181818;stroke-width:1.0417;" width="31.25" x="1484.6279" y="567.4727"/><rect fill="#F1F1F1" height="4.1667" style="stroke:#181818;stroke-width:1.0417;" width="8.3333" x="1480.4613" y="571.6393"/><rect fill="#F1F1F1" height="4.1667" style="stroke:#181818;stroke-width:1.0417;" width="8.3333" x="1480.4613" y="579.9727"/><text fill="#000000" font-family="sans-serif" font-size="29.1667" lengthAdjust="spacing" textLength="293.3044" x="1174.8542" y="625.7958">Extracci&#243;n de Datos</text><text fill="#0000FF" font-family="sans-serif" font-size="29.1667" lengthAdjust="spacing" textLength="299.3571" x="1174.8542" y="659.7476">Playwright + Docker</text></g><!--entity Transformador--><g class="entity" data-entity="Transformador" data-source-line="19" data-uid="ent0008" id="entity_Transformador"><rect fill="#F1F1F1" height="130.4036" rx="15.625" ry="15.625" style="stroke:#181818;stroke-width:1.0417;" width="332.9447" x="553.8958" y="557.056"/><rect fill="#F1F1F1" height="20.8333" style="stroke:#181818;stroke-width:1.0417;" width="31.25" x="845.1739" y="567.4727"/><rect fill="#F1F1F1" height="4.1667" style="stroke:#181818;stroke-width:1.0417;" width="8.3333" x="841.0072" y="571.6393"/><rect fill="#F1F1F1" height="4.1667" style="stroke:#181818;stroke-width:1.0417;" width="8.3333" x="841.0072" y="579.9727"/><text fill="#000000" font-family="sans-serif" font-size="29.1667" lengthAdjust="spacing" textLength="228.2206" x="585.1458" y="625.7958">Transformaci&#243;n</text><text fill="#0000FF" font-family="sans-serif" font-size="29.1667" lengthAdjust="spacing" textLength="249.6114" x="585.1458" y="659.7476">Python + Pandas</text></g><!--entity Loader--><g class="entity" data-entity="Loader" data-source-line="20" data-uid="ent0009" id="entity_Loader"><rect fill="#F1F1F1" height="130.4036" rx="15.625" ry="15.625" style="stroke:#181818;stroke-width:1.0417;" width="319.9565" x="2364.5417" y="557.056"/><rect fill="#F1F1F1" height="20.8333" style="stroke:#181818;stroke-width:1.0417;" width="31.25" x="2642.8315" y="567.4727"/><rect fill="#F1F1F1" height="4.1667" style="stroke:#181818;stroke-width:1.0417;" width="8.3333" x="2638.6648" y="571.6393"/><rect fill="#F1F1F1" height="4.1667" style="stroke:#181818;stroke-width:1.0417;" width="8.3333" x="2638.6648" y="579.9727"/><text fill="#000000" font-family="sans-serif" font-size="29.1667" lengthAdjust="spacing" textLength="226.4262" x="2395.7917" y="625.7958">Carga de Datos</text><text fill="#0000FF" font-family="sans-serif" font-size="29.1667" lengthAdjust="spacing" textLength="236.6231" x="2395.7917" y="659.7476">Supabase Client</text></g><!--entity DB--><g class="entity" data-entity="DB" data-source-line="28" data-uid="ent0014" id="entity_DB"><rect fill="#F1F1F1" height="130.4036" rx="15.625" ry="15.625" style="stroke:#181818;stroke-width:1.0417;" width="294.165" x="3687.8542" y="1049.6602"/><rect fill="#F1F1F1" height="20.8333" style="stroke:#181818;stroke-width:1.0417;" width="31.25" x="3940.3525" y="1060.0768"/><rect fill="#F1F1F1" height="4.1667" style="stroke:#181818;stroke-width:1.0417;" width="8.3333" x="3936.1859" y="1064.2435"/><rect fill="#F1F1F1" height="4.1667" style="stroke:#181818;stroke-width:1.0417;" width="8.3333" x="3936.1859" y="1072.5768"/><text fill="#000000" font-family="sans-serif" font-size="29.1667" lengthAdjust="spacing" textLength="210.8317" x="3719.1042" y="1118.4">Base de Datos</text><text fill="#008000" font-family="sans-serif" font-size="29.1667" lengthAdjust="spacing" textLength="168.2353" x="3719.1042" y="1152.3518">PostgreSQL</text></g><!--entity Storage--><g class="entity" data-entity="Storage" data-source-line="29" data-uid="ent0015" id="entity_Storage"><rect fill="#F1F1F1" height="130.4036" rx="15.625" ry="15.625" style="stroke:#181818;stroke-width:1.0417;" width="349.6358" x="3401.7917" y="1273.806"/><rect fill="#F1F1F1" height="20.8333" style="stroke:#181818;stroke-width:1.0417;" width="31.25" x="3709.7608" y="1284.2227"/><rect fill="#F1F1F1" height="4.1667" style="stroke:#181818;stroke-width:1.0417;" width="8.3333" x="3705.5942" y="1288.3893"/><rect fill="#F1F1F1" height="4.1667" style="stroke:#181818;stroke-width:1.0417;" width="8.3333" x="3705.5942" y="1296.7227"/><text fill="#000000" font-family="sans-serif" font-size="29.1667" lengthAdjust="spacing" textLength="246.9055" x="3433.0417" y="1342.5458">Almacenamiento</text><text fill="#008000" font-family="sans-serif" font-size="29.1667" lengthAdjust="spacing" textLength="266.3025" x="3433.0417" y="1376.4976">Supabase Storage</text></g><!--entity API--><g class="entity" data-entity="API" data-source-line="30" data-uid="ent0016" id="entity_API"><rect fill="#F1F1F1" height="130.4036" rx="15.625" ry="15.625" style="stroke:#181818;stroke-width:1.0417;" width="390.4948" x="3639.6875" y="1466.7227"/><rect fill="#F1F1F1" height="20.8333" style="stroke:#181818;stroke-width:1.0417;" width="31.25" x="3988.5156" y="1477.1393"/><rect fill="#F1F1F1" height="4.1667" style="stroke:#181818;stroke-width:1.0417;" width="8.3333" x="3984.349" y="1481.306"/><rect fill="#F1F1F1" height="4.1667" style="stroke:#181818;stroke-width:1.0417;" width="8.3333" x="3984.349" y="1489.6393"/><text fill="#000000" font-family="sans-serif" font-size="29.1667" lengthAdjust="spacing" textLength="307.1615" x="3670.9375" y="1535.4625">API REST Autom&#225;tica</text><text fill="#008000" font-family="sans-serif" font-size="29.1667" lengthAdjust="spacing" textLength="299.4995" x="3670.9375" y="1569.4143">Auto-generated APIs</text></g><!--entity Dashboard--><g class="entity" data-entity="Dashboard" data-source-line="37" data-uid="ent0020" id="entity_Dashboard"><rect fill="#F1F1F1" height="130.4036" rx="15.625" ry="15.625" style="stroke:#181818;stroke-width:1.0417;" width="360.5733" x="4273.3958" y="1049.6602"/><rect fill="#F1F1F1" height="20.8333" style="stroke:#181818;stroke-width:1.0417;" width="31.25" x="4592.3025" y="1060.0768"/><rect fill="#F1F1F1" height="4.1667" style="stroke:#181818;stroke-width:1.0417;" width="8.3333" x="4588.1358" y="1064.2435"/><rect fill="#F1F1F1" height="4.1667" style="stroke:#181818;stroke-width:1.0417;" width="8.3333" x="4588.1358" y="1072.5768"/><text fill="#000000" font-family="sans-serif" font-size="29.1667" lengthAdjust="spacing" textLength="158.7504" x="4304.6458" y="1118.4">Dashboard</text><text fill="#800080" font-family="sans-serif" font-size="29.1667" lengthAdjust="spacing" textLength="277.24" x="4304.6458" y="1152.3518">Angular + Tailwind</text></g><!--entity Cloud--><g class="entity" data-entity="Cloud" data-source-line="41" data-uid="ent0022" id="entity_Cloud"><rect fill="#F1F1F1" height="130.4036" rx="15.625" ry="15.625" style="stroke:#181818;stroke-width:1.0417;" width="306.9112" x="4646.0625" y="557.056"/><rect fill="#F1F1F1" height="20.8333" style="stroke:#181818;stroke-width:1.0417;" width="31.25" x="4911.307" y="567.4727"/><rect fill="#F1F1F1" height="4.1667" style="stroke:#181818;stroke-width:1.0417;" width="8.3333" x="4907.1404" y="571.6393"/><rect fill="#F1F1F1" height="4.1667" style="stroke:#181818;stroke-width:1.0417;" width="8.3333" x="4907.1404" y="579.9727"/><text fill="#000000" font-family="sans-serif" font-size="29.1667" lengthAdjust="spacing" textLength="223.5779" x="4677.3125" y="625.7958">Servicios Cloud</text><text fill="#FFA500" font-family="sans-serif" font-size="29.1667" lengthAdjust="spacing" textLength="215.2751" x="4677.3125" y="659.7476">Vercel / Netlify</text></g><!--entity Logs--><g class="entity" data-entity="Logs" data-source-line="45" data-uid="ent0024" id="entity_Logs"><rect fill="#F1F1F1" height="130.4036" rx="15.625" ry="15.625" style="stroke:#181818;stroke-width:1.0417;" width="455.4504" x="734.2917" y="1049.6602"/><rect fill="#F1F1F1" height="20.8333" style="stroke:#181818;stroke-width:1.0417;" width="31.25" x="1148.0754" y="1060.0768"/><rect fill="#F1F1F1" height="4.1667" style="stroke:#181818;stroke-width:1.0417;" width="8.3333" x="1143.9088" y="1064.2435"/><rect fill="#F1F1F1" height="4.1667" style="stroke:#181818;stroke-width:1.0417;" width="8.3333" x="1143.9088" y="1072.5768"/><text fill="#000000" font-family="sans-serif" font-size="29.1667" lengthAdjust="spacing" textLength="240.2832" x="765.5417" y="1118.4">Sistema de Logs</text><text fill="#FF0000" font-family="sans-serif" font-size="29.1667" lengthAdjust="spacing" textLength="372.1171" x="765.5417" y="1152.3518">GitHub Actions + Custom</text></g><!--entity Alertas--><g class="entity" data-entity="Alertas" data-source-line="46" data-uid="ent0025" id="entity_Alertas"><rect fill="#F1F1F1" height="130.4036" rx="15.625" ry="15.625" style="stroke:#181818;stroke-width:1.0417;" width="358.3089" x="782.875" y="1466.7227"/><rect fill="#F1F1F1" height="20.8333" style="stroke:#181818;stroke-width:1.0417;" width="31.25" x="1099.5173" y="1477.1393"/><rect fill="#F1F1F1" height="4.1667" style="stroke:#181818;stroke-width:1.0417;" width="8.3333" x="1095.3506" y="1481.306"/><rect fill="#F1F1F1" height="4.1667" style="stroke:#181818;stroke-width:1.0417;" width="8.3333" x="1095.3506" y="1489.6393"/><text fill="#000000" font-family="sans-serif" font-size="29.1667" lengthAdjust="spacing" textLength="274.9756" x="814.125" y="1535.4625">Sistema de Alertas</text><text fill="#FF0000" font-family="sans-serif" font-size="29.1667" lengthAdjust="spacing" textLength="201.3184" x="814.125" y="1569.4143">Email + Slack</text></g><!--entity User--><g class="entity" data-entity="User" data-source-line="12" data-uid="ent0002" id="entity_User"><ellipse cx="3097.4418" cy="560.4935" fill="#FFFFFF" rx="16.6667" ry="16.6667" style="stroke:#333333;stroke-width:1.0417;"/><path d="M3097.4418,577.1602 L3097.4418,633.4102 M3070.3584,593.8268 L3124.5251,593.8268 M3097.4418,633.4102 L3070.3584,664.6602 M3097.4418,633.4102 L3124.5251,664.6602" fill="none" style="stroke:#333333;stroke-width:1.0417;"/><text fill="#000000" font-family="sans-serif" font-size="29.1667" lengthAdjust="spacing" textLength="110.8419" x="3042.0208" y="694.8583">Usuario</text></g><!--entity GH--><g class="entity" data-entity="GH" data-source-line="13" data-uid="ent0003" id="entity_GH"><ellipse cx="2162.0319" cy="1036.1185" fill="#FFFFFF" rx="16.6667" ry="16.6667" style="stroke:#333333;stroke-width:1.0417;"/><path d="M2162.0319,1052.7852 L2162.0319,1109.0352 M2134.9485,1069.4518 L2189.1152,1069.4518 M2162.0319,1109.0352 L2134.9485,1140.2852 M2162.0319,1109.0352 L2189.1152,1140.2852" fill="none" style="stroke:#333333;stroke-width:1.0417;"/><text fill="#000000" font-family="sans-serif" font-size="29.1667" lengthAdjust="spacing" textLength="217.3971" x="2053.3333" y="1170.4833">GitHub Actions</text><text fill="#000000" font-family="sans-serif" font-size="29.1667" lengthAdjust="spacing" textLength="205.5054" x="2053.3333" y="1204.4351">(Orquestador)</text></g><!--entity Fuentes--><g class="entity" data-entity="Fuentes" data-source-line="14" data-uid="ent0004" id="entity_Fuentes"><ellipse cx="1709.9374" cy="106.8685" fill="#FFFFFF" rx="16.6667" ry="16.6667" style="stroke:#333333;stroke-width:1.0417;"/><path d="M1709.9374,123.5352 L1709.9374,179.7852 M1682.8541,140.2018 L1737.0208,140.2018 M1709.9374,179.7852 L1682.8541,211.0352 M1709.9374,179.7852 L1737.0208,211.0352" fill="none" style="stroke:#333333;stroke-width:1.0417;"/><text fill="#000000" font-family="sans-serif" font-size="29.1667" lengthAdjust="spacing" textLength="256.0771" x="1572.5208" y="241.2333">Fuentes de Datos</text><text fill="#000000" font-family="sans-serif" font-size="29.1667" lengthAdjust="spacing" textLength="274.8332" x="1572.5208" y="275.1851">(ANH, MME, UPME)</text></g><!--link Detector to Extractor--><g class="link" data-entity-1="Detector" data-entity-2="Extractor" data-source-line="22" data-uid="lnk10" id="link_Detector_Extractor"><path d="M1881.1458,622.2643 C1770.5417,622.2643 1647.5417,622.2643 1539.1667,622.2643" fill="none" id="Detector-to-Extractor" style="stroke:#333333;stroke-width:2.0833;"/><polygon fill="#333333" points="1526.6667,622.2643,1545.4167,630.5977,1537.0833,622.2643,1545.4167,613.931,1526.6667,622.2643" style="stroke:#333333;stroke-width:2.0833;"/><text fill="#000000" font-family="sans-serif" font-size="27.0833" lengthAdjust="spacing" textLength="280.6722" x="1564.3333" y="607.8204">Cambios Detectados</text></g><!--link Extractor to Transformador--><g class="link" data-entity-1="Extractor" data-entity-2="Transformador" data-source-line="23" data-uid="lnk11" id="link_Extractor_Transformador"><path d="M1142.8542,622.2643 C1061,622.2643 978.8958,622.2643 899.9792,622.2643" fill="none" id="Extractor-to-Transformador" style="stroke:#333333;stroke-width:2.0833;"/><polygon fill="#333333" points="887.4792,622.2643,906.2292,630.5977,897.8958,622.2643,906.2292,613.931,887.4792,622.2643" style="stroke:#333333;stroke-width:2.0833;"/><text fill="#000000" font-family="sans-serif" font-size="27.0833" lengthAdjust="spacing" textLength="182.4422" x="924.5833" y="607.8204">Datos Crudos</text></g><!--link Transformador to Loader--><g class="link" data-entity-1="Transformador" data-entity-2="Loader" data-source-line="24" data-uid="lnk12" id="link_Transformador_Loader"><path d="M820.75,556.306 C896.2708,510.681 1004.1458,453.7018 1107.8542,427.8893 C1371.125,362.3893 2079.9792,319.5143 2328.6875,427.8893 C2390.6042,454.8893 2436.0326,501.2482 2471.2617,546.3315" fill="none" id="Transformador-to-Loader" style="stroke:#333333;stroke-width:2.0833;"/><polygon fill="#333333" points="2478.9583,556.181,2473.9797,536.2757,2472.5445,547.9731,2460.8471,546.5378,2478.9583,556.181" style="stroke:#333333;stroke-width:2.0833;"/><text fill="#000000" font-family="sans-serif" font-size="27.0833" lengthAdjust="spacing" textLength="272.0367" x="1714.1042" y="387.4037">Datos Normalizados</text></g><!--link DB to Storage--><!--link Storage to API--><!--link User to GH--><g class="link" data-entity-1="User" data-entity-2="GH" data-source-line="50" data-uid="lnk26" id="link_User_GH"><path d="M3041.2917,647.3268 C2985.7083,671.6185 2899.75,713.4102 2834.9375,764.2435 C2769.4167,815.6393 2778.5625,856.6393 2709.9375,903.8268 C2573,997.9935 2399.988,1053.8684 2283.8422,1084.2851" fill="none" id="User-to-GH" style="stroke:#333333;stroke-width:2.0833;"/><polygon fill="#333333" points="2271.75,1087.4518,2291.9995,1090.7632,2281.8268,1084.8129,2287.7772,1074.6402,2271.75,1087.4518" style="stroke:#333333;stroke-width:2.0833;"/><text fill="#000000" font-family="sans-serif" font-size="27.0833" lengthAdjust="spacing" textLength="204.4078" x="2837.0208" y="827.9245">Trigger Manual</text><text fill="#000000" font-family="sans-serif" font-size="27.0833" lengthAdjust="spacing" textLength="139.9129" x="2869.2682" y="859.4512">(Opcional)</text></g><!--link GH to Detector--><g class="link" data-entity-1="GH" data-entity-2="Detector" data-source-line="51" data-uid="lnk27" id="link_GH_Detector"><path d="M2052.3542,1037.556 C2010.6042,1002.3268 1967.7292,956.4935 1945.3542,903.8268 C1921.1042,846.7227 1921.4375,821.4727 1945.3542,764.2435 C1957.3542,735.5352 1969.3985,718.3784 1991.6901,696.9826" fill="none" id="GH-to-Detector" style="stroke:#333333;stroke-width:2.0833;"/><polygon fill="#333333" points="2000.7083,688.3268,1981.4105,695.2984,1993.1932,695.54,1992.9516,707.3226,2000.7083,688.3268" style="stroke:#333333;stroke-width:2.0833;"/><text fill="#000000" font-family="sans-serif" font-size="27.0833" lengthAdjust="spacing" textLength="319.0887" x="1954.572" y="827.9245">Ejecuta Scraper Liviano</text><text fill="#000000" font-family="sans-serif" font-size="27.0833" lengthAdjust="spacing" textLength="333.3577" x="1947.4375" y="859.4512">(Cron Semanal/Mensual)</text></g><!--link Detector to GH--><g class="link" data-entity-1="Detector" data-entity-2="GH" data-source-line="54" data-uid="lnk29" id="link_Detector_GH"><path d="M2220.5833,688.306 C2248.8958,708.4518 2275.0625,733.6393 2291.1875,764.2435 C2334.375,846.1602 2295.5758,935.4172 2246.9717,1007.1255" fill="none" id="Detector-to-GH" style="stroke:#333333;stroke-width:2.0833;"/><polygon fill="#333333" points="2239.9583,1017.4727,2257.3764,1006.6275,2245.8028,1008.85,2243.5802,997.2764,2239.9583,1017.4727" style="stroke:#333333;stroke-width:2.0833;"/><text fill="#000000" font-family="sans-serif" font-size="27.0833" lengthAdjust="spacing" textLength="376.7598" x="2312.6195" y="791.4662">Reporta Estado de Cambios</text><path d="M2318.2708,825.9785 L2318.2708,878.0618 A15.625,15.625 0 0 0 2333.8958,893.6868 L2667.2292,893.6868 A15.625,15.625 0 0 0 2682.8542,878.0618 L2682.8542,831.1868 L2662.0208,810.3535 L2333.8958,810.3535 A15.625,15.625 0 0 0 2318.2708,825.9785" fill="#FEFFDD" style="stroke:#181818;stroke-width:1.0417;"/><path d="M2662.0208,810.3535 L2662.0208,823.3743 A7.8125,7.8125 0 0 0 2669.8333,831.1868 L2682.8542,831.1868 L2662.0208,810.3535" fill="#FEFFDD" style="stroke:#181818;stroke-width:1.0417;"/><text fill="#000000" font-family="sans-serif" font-size="27.0833" lengthAdjust="spacing" textLength="255.9428" x="2330.7708" y="845.9095">Si no hay cambios,</text><text fill="#000000" font-family="sans-serif" font-size="27.0833" lengthAdjust="spacing" textLength="321.7072" x="2330.7708" y="877.4362">el proceso termina aqu&#237;</text></g><!--link Fuentes to Detector--><g class="link" data-entity-1="Fuentes" data-entity-2="Detector" data-source-line="52" data-uid="lnk28" id="link_Fuentes_Detector"><path d="M1847.8542,235.2643 C1902.4375,260.2435 1961.5833,295.9727 2001.6042,344.556 C2051.7708,405.4727 2070.7888,483.3878 2079.3513,543.8462" fill="none" id="Fuentes-to-Detector" style="stroke:#333333;stroke-width:2.0833;"/><polygon fill="#333333" points="2081.1042,556.2227,2086.7259,536.4894,2079.6435,545.9089,2070.2239,538.8265,2081.1042,556.2227" style="stroke:#333333;stroke-width:2.0833;"/><text fill="#000000" font-family="sans-serif" font-size="27.0833" lengthAdjust="spacing" textLength="118.6615" x="2041.1875" y="387.4037">Consulta</text><text fill="#000000" font-family="sans-serif" font-size="27.0833" lengthAdjust="spacing" textLength="175.0102" x="1887.7123" y="534.0624">last_updated</text></g><!--link GH to Extractor--><g class="link" data-entity-1="GH" data-entity-2="Extractor" data-source-line="60" data-uid="lnk30" id="link_GH_Extractor"><path d="M2052.3542,1100.3893 C1914.3542,1080.0143 1675.8542,1028.4102 1514.1042,903.8268 C1440.8333,847.3685 1394.1191,763.2514 1365.6608,699.8555" fill="none" id="GH-to-Extractor" style="stroke:#333333;stroke-width:2.0833;"/><polygon fill="#333333" points="1360.5417,688.4518,1360.6179,708.9701,1364.8076,697.9549,1375.8228,702.1446,1360.5417,688.4518" style="stroke:#333333;stroke-width:2.0833;"/><text fill="#000000" font-family="sans-serif" font-size="27.0833" lengthAdjust="spacing" textLength="394.2159" x="1516.1875" y="843.5495">Dispara Extracci&#243;n Completa</text></g><!--link Fuentes to Extractor--><g class="link" data-entity-1="Fuentes" data-entity-2="Extractor" data-source-line="61" data-uid="lnk31" id="link_Fuentes_Extractor"><path d="M1572.2708,207.3268 C1489.125,227.056 1389.3958,266.3685 1337.0208,344.556 C1295.2292,406.9935 1301.2735,484.297 1314.2318,544.1928" fill="none" id="Fuentes-to-Extractor" style="stroke:#333333;stroke-width:2.0833;"/><polygon fill="#333333" points="1316.875,556.4102,1321.0551,536.322,1314.6723,546.229,1304.7653,539.8463,1316.875,556.4102" style="stroke:#333333;stroke-width:2.0833;"/><text fill="#000000" font-family="sans-serif" font-size="27.0833" lengthAdjust="spacing" textLength="355.0588" x="1339.1042" y="371.7787">Descarga Archivos Fuente</text><text fill="#000000" font-family="sans-serif" font-size="27.0833" lengthAdjust="spacing" textLength="232.3507" x="1400.4582" y="403.3054">(XLSX, CSV, PDF)</text></g><!--link Loader to DB--><g class="link" data-entity-1="Loader" data-entity-2="DB" data-source-line="62" data-uid="lnk32" id="link_Loader_DB"><path d="M2685.125,670.4518 C2777.9792,694.9935 2897.5208,723.0352 3005.7708,737.4727 C3048.8333,743.2018 3754.7917,735.1393 3787.0208,764.2435 C3865.4583,835.0352 3861.6241,956.965 3849.6866,1036.59" fill="none" id="Loader-to-DB" style="stroke:#333333;stroke-width:2.0833;"/><polygon fill="#333333" points="3847.8333,1048.9518,3858.8545,1031.6446,3849.3778,1038.6503,3842.3721,1029.1735,3847.8333,1048.9518" style="stroke:#333333;stroke-width:2.0833;"/><text fill="#000000" font-family="sans-serif" font-size="27.0833" lengthAdjust="spacing" textLength="372.8719" x="3851.6042" y="843.5495">UPSERT en Tabla Canonical</text></g><!--link Loader to Storage--><g class="link" data-entity-1="Loader" data-entity-2="Storage" data-source-line="63" data-uid="lnk33" id="link_Loader_Storage"><path d="M2685,654.806 C2793.25,678.0977 2938.0208,714.681 3059.9375,764.2435 C3190.1667,817.181 3235.0833,821.5352 3334.9375,920.4935 C3440.3333,1024.931 3510.986,1173.1869 3547.3401,1261.3744" fill="none" id="Loader-to-Storage" style="stroke:#333333;stroke-width:2.0833;"/><polygon fill="#333333" points="3552.1042,1272.931,3552.6625,1252.4201,3548.1341,1263.3005,3537.2537,1258.7722,3552.1042,1272.931" style="stroke:#333333;stroke-width:2.0833;"/><text fill="#000000" font-family="sans-serif" font-size="27.0833" lengthAdjust="spacing" textLength="369.5923" x="3316.1875" y="843.5495">Guarda Archivos Originales</text></g><!--link DB to API--><g class="link" data-entity-1="DB" data-entity-2="API" data-source-line="64" data-uid="lnk34" id="link_DB_API"><path d="M3834.9375,1180.556 C3834.9375,1258.1393 3834.9375,1376.0352 3834.9375,1453.6602" fill="none" id="DB-to-API" style="stroke:#333333;stroke-width:2.0833;"/><polygon fill="#333333" points="3834.9375,1466.1602,3843.2708,1447.4102,3834.9375,1455.7435,3826.6042,1447.4102,3834.9375,1466.1602" style="stroke:#333333;stroke-width:2.0833;"/><text fill="#000000" font-family="sans-serif" font-size="27.0833" lengthAdjust="spacing" textLength="317.6208" x="3837.0208" y="1348.5287">Expone Datos Via REST</text></g><!--link Dashboard to API--><g class="link" data-entity-1="Dashboard" data-entity-2="API" data-source-line="66" data-uid="lnk35" id="link_Dashboard_API"><path d="M4405.1667,1180.9727 C4353.625,1245.1602 4266.6667,1342.9935 4172.4375,1404.2227 C4129.4583,1432.1393 4091.0654,1450.6513 4042.857,1468.9013" fill="none" id="Dashboard-to-API" style="stroke:#333333;stroke-width:2.0833;"/><polygon fill="#333333" points="4031.1667,1473.3268,4051.6526,1474.482,4040.9086,1469.6389,4045.7518,1458.8949,4031.1667,1473.3268" style="stroke:#333333;stroke-width:2.0833;"/><text fill="#000000" font-family="sans-serif" font-size="27.0833" lengthAdjust="spacing" textLength="460.6944" x="4322.4375" y="1348.5287">Consulta Datos para Visualizaci&#243;n</text></g><!--link Cloud to Dashboard--><g class="link" data-entity-1="Cloud" data-entity-2="Dashboard" data-source-line="67" data-uid="lnk36" id="link_Cloud_Dashboard"><path d="M4792.2708,688.4518 C4782.9792,748.3893 4762.4375,838.2227 4718.2708,903.8268 C4678.7083,962.5768 4627.7902,1005.4676 4574.1861,1041.7384" fill="none" id="Cloud-to-Dashboard" style="stroke:#333333;stroke-width:2.0833;"/><polygon fill="#333333" points="4563.8333,1048.7435,4584.0325,1045.1377,4572.4606,1042.9059,4574.6924,1031.334,4563.8333,1048.7435" style="stroke:#333333;stroke-width:2.0833;"/><text fill="#000000" font-family="sans-serif" font-size="27.0833" lengthAdjust="spacing" textLength="284.7982" x="4776.6042" y="843.5495">Sirve Aplicaci&#243;n Web</text></g><!--link User to Dashboard--><g class="link" data-entity-1="User" data-entity-2="Dashboard" data-source-line="68" data-uid="lnk37" id="link_User_Dashboard"><path d="M3153.7708,624.4102 C3358.7917,625.6393 4062.6458,639.0768 4241.1875,764.2435 C4298.1458,804.181 4276.6875,843.8893 4312.0208,903.8268 C4341.625,954.0352 4371.4928,998.2655 4400.2845,1038.9946" fill="none" id="User-to-Dashboard" style="stroke:#333333;stroke-width:2.0833;"/><polygon fill="#333333" points="4407.5,1049.2018,4403.4815,1029.0807,4401.4871,1040.6958,4389.872,1038.7014,4407.5,1049.2018" style="stroke:#333333;stroke-width:2.0833;"/><text fill="#000000" font-family="sans-serif" font-size="27.0833" lengthAdjust="spacing" textLength="385.4879" x="4314.1042" y="843.5495">Interact&#250;a con el Dashboard</text></g><!--link Extractor to Logs--><g class="link" data-entity-1="Extractor" data-entity-2="Logs" data-source-line="71" data-uid="lnk38" id="link_Extractor_Logs"><path d="M1143.5833,684.8477 C1074.5208,704.556 995.5833,724.6185 922.4375,737.4727 C885.8542,743.8893 614.3125,736.931 589.1042,764.2435 C547.0417,809.8268 557.75,850.306 589.1042,903.8268 C627.75,969.7852 684.3931,1011.0729 751.7681,1043.3438" fill="none" id="Extractor-to-Logs" style="stroke:#333333;stroke-width:2.0833;"/><polygon fill="#333333" points="763.0417,1048.7435,749.7312,1033.1282,753.647,1044.2437,742.5315,1048.1596,763.0417,1048.7435" style="stroke:#333333;stroke-width:2.0833;"/><text fill="#000000" font-family="sans-serif" font-size="27.0833" lengthAdjust="spacing" textLength="326.5737" x="591.1875" y="843.5495">Env&#237;a Logs de Ejecuci&#243;n</text></g><!--link Transformador to Logs--><g class="link" data-entity-1="Transformador" data-entity-2="Logs" data-source-line="72" data-uid="lnk39" id="link_Transformador_Logs"><path d="M553.5208,635.7227 C376.4583,651.7018 113.6875,687.8268 51.6042,764.2435 C12.5,812.3893 12.9583,855.306 51.6042,903.8268 C135.3333,1008.9518 479.8683,1064.1536 721.1599,1090.9869" fill="none" id="Transformador-to-Logs" style="stroke:#333333;stroke-width:2.0833;"/><polygon fill="#333333" points="733.5833,1092.3685,715.8693,1082.0139,723.2305,1091.2172,714.0272,1098.5784,733.5833,1092.3685" style="stroke:#333333;stroke-width:2.0833;"/><text fill="#000000" font-family="sans-serif" font-size="27.0833" lengthAdjust="spacing" textLength="450.234" x="53.6875" y="843.5495">Env&#237;a M&#233;tricas de Procesamiento</text></g><!--link Loader to Logs--><g class="link" data-entity-1="Loader" data-entity-2="Logs" data-source-line="73" data-uid="lnk40" id="link_Loader_Logs"><path d="M2436.1458,688.0143 C2403.8958,707.7435 2366.125,727.0143 2328.6875,737.4727 C2257.875,757.2227 1060.3958,715.056 1005.7708,764.2435 C927.375,834.8477 932.9211,956.8481 946.0878,1036.5564" fill="none" id="Loader-to-Logs" style="stroke:#333333;stroke-width:2.0833;"/><polygon fill="#333333" points="948.125,1048.8893,953.2911,1029.0319,946.4273,1038.6119,936.8473,1031.7482,948.125,1048.8893" style="stroke:#333333;stroke-width:2.0833;"/><text fill="#000000" font-family="sans-serif" font-size="27.0833" lengthAdjust="spacing" textLength="375.5432" x="1007.8542" y="843.5495">Env&#237;a Estad&#237;sticas de Carga</text></g><!--link Logs to Alertas--><g class="link" data-entity-1="Logs" data-entity-2="Alertas" data-source-line="74" data-uid="lnk41" id="link_Logs_Alertas"><path d="M962.0208,1180.556 C962.0208,1258.1393 962.0208,1376.0352 962.0208,1453.6602" fill="none" id="Logs-to-Alertas" style="stroke:#333333;stroke-width:2.0833;"/><polygon fill="#333333" points="962.0208,1466.1602,970.3542,1447.4102,962.0208,1455.7435,953.6875,1447.4102,962.0208,1466.1602" style="stroke:#333333;stroke-width:2.0833;"/><text fill="#000000" font-family="sans-serif" font-size="27.0833" lengthAdjust="spacing" textLength="319.8822" x="964.1042" y="1348.5287">Notifica Errores Cr&#237;ticos</text></g><!--link Alertas to User--><g class="link" data-entity-1="Alertas" data-entity-2="User" data-source-line="75" data-uid="lnk42" id="link_Alertas_User"><path d="M1141.7917,1502.681 C1403.1458,1460.3477 1901.1875,1368.7852 2307.8542,1230.056 C2614.6667,1125.4102 2660.3542,1021.806 2968.2708,920.4935 C3004.1458,908.681 3025.375,930.9935 3051.6042,903.8268 C3102.5,851.1185 3110.2641,777.5843 3107.3683,714.876" fill="none" id="Alertas-to-User" style="stroke:#333333;stroke-width:2.0833;"/><polygon fill="#333333" points="3106.7917,702.3893,3099.3321,721.5038,3107.2722,712.7949,3115.9811,720.7349,3106.7917,702.3893" style="stroke:#333333;stroke-width:2.0833;"/><text fill="#000000" font-family="sans-serif" font-size="27.0833" lengthAdjust="spacing" textLength="396.4773" x="2970.3542" y="1124.3829">Env&#237;a Alertas por Email/Slack</text></g><g class="legend" data-source-line="77"><rect fill="#DDDDDD" height="224.5443" rx="15.625" ry="15.625" style="stroke:#000000;stroke-width:2.0833;" width="906.486" x="2071.2082" y="1667.9518"/><text fill="#000000" font-family="sans-serif" font-size="29.1667" font-weight="bold" lengthAdjust="spacing" textLength="352.9765" x="2081.6248" y="1705.4417">Tecnolog&#237;as por Capa</text><text fill="#000000" font-family="sans-serif" font-size="29.1667" lengthAdjust="spacing" textLength="21.049" x="2081.6248" y="1739.3935">--</text><text fill="#0000FF" font-family="sans-serif" font-size="29.1667" lengthAdjust="spacing" textLength="226.5259" x="2111.9451" y="1739.3935">Procesamiento:</text><text fill="#000000" font-family="sans-serif" font-size="29.1667" lengthAdjust="spacing" textLength="619.5353" x="2347.7422" y="1739.3935">Python, Pandas, Playwright, BeautifulSoup</text><text fill="#000000" font-family="sans-serif" font-size="29.1667" lengthAdjust="spacing" textLength="21.049" x="2081.6248" y="1773.3453">--</text><text fill="#008000" font-family="sans-serif" font-size="29.1667" lengthAdjust="spacing" textLength="256.7322" x="2111.9451" y="1773.3453">Almacenamiento:</text><text fill="#000000" font-family="sans-serif" font-size="29.1667" lengthAdjust="spacing" textLength="500.2767" x="2377.9485" y="1773.3453">Supabase (PostgreSQL + Storage)</text><text fill="#000000" font-family="sans-serif" font-size="29.1667" lengthAdjust="spacing" textLength="21.049" x="2081.6248" y="1807.2971">--</text><text fill="#800080" font-family="sans-serif" font-size="29.1667" lengthAdjust="spacing" textLength="141.3045" x="2111.9451" y="1807.2971">Frontend:</text><text fill="#000000" font-family="sans-serif" font-size="29.1667" lengthAdjust="spacing" textLength="427.474" x="2262.5208" y="1807.2971">Angular, Tailwind, TypeScript</text><text fill="#000000" font-family="sans-serif" font-size="29.1667" lengthAdjust="spacing" textLength="21.049" x="2081.6248" y="1841.2489">--</text><text fill="#FFA500" font-family="sans-serif" font-size="29.1667" lengthAdjust="spacing" textLength="173.0347" x="2111.9451" y="1841.2489">Despliegue:</text><text fill="#000000" font-family="sans-serif" font-size="29.1667" lengthAdjust="spacing" textLength="441.3879" x="2294.251" y="1841.2489">Vercel, Netlify, GitHub Actions</text><text fill="#000000" font-family="sans-serif" font-size="29.1667" lengthAdjust="spacing" textLength="21.049" x="2081.6248" y="1875.2008">--</text><text fill="#FF0000" font-family="sans-serif" font-size="29.1667" lengthAdjust="spacing" textLength="222.4528" x="2111.9451" y="1875.2008">Monitorizaci&#243;n:</text><text fill="#000000" font-family="sans-serif" font-size="29.1667" lengthAdjust="spacing" textLength="597.7458" x="2343.6691" y="1875.2008">GitHub Logs, Custom Alerts, Email, Slack</text></g><!--SRC=[TLRBRkCs5DthAsxJHIUeZVI1sGGP0uxY90PinusSTD3feA0bHc53angAoanQz2lw1LrsaLLttVh7UaX9bkXqd22HoNlFVP-hBp9-9nIdwqcy6YykPXDA9IlBg7mGgc26RIWh17ttpJUz4wChbQNQA6xeszUz2wzwojA7t8l4Mcf3Nvw_TZylnBJ9k6b4llUVVP6nCVhZvoHOQhLvQSj_NeZzZwt82YivZSs7IbYUsiemoZWbMbQfsFwZQ4ZNt6gwO2KjcBkMKUJHwE2ch9WH-e1mTrDoqvvV27jPhMcSMg5L-RDwTGLqNbgMQNFefIykMzdpYYlBIsVpZ5djfCUBom7DvvC1tIpdargX4OkY0g6odDF1qkYKbvecgza1_HuHlJlZ2A1s6cWnswo5mpj9NS37QrdnqIbdbHLtbKnqLPmS-PlHUsV0AyCZ1pJvP0tha1g_-ZXBoPu-6f7VM_gQpdJwm4s0LYCqS2l3L7cdpOPvo3sa9tkl5L2MJ6Mi350wnQn6Yfd9sMTSIgg2hLc9mAL0hWAWcMOeF13msmPAmr7d9Xst-MhkOR64S2S0wS0TQ7WdA3PLBHjUGxwskXDSk2ifVlFGV_GgEPR835Tiu_pMz4IkdRdAVE5tOVaIdxgd5_7dXdCrMkhIuYdvOHOMzjGfXZRsD7Ss4aGAbmBzvio3BASWY6H5uyhgpVOlArAs1-LkXZa79J3BCu96M58SD6KufU6xUv5bNBtlsMYUUdTEev-jSwCn2KrssY_D0B3oVgsPoNPE5PKf91-DLLv9Pj1bAoRaHw6oC4MjNc08FMwPhwVFE2yBD5PUSM_u4iaMAg_j9jmyYjGrJonrrLb7A2hderjkKYxfY1RSId7t5DZs6e7TkLO2MK2Z-77nvjgpdKLHMbuxDjDvrmc6PwEGVH1pN9Kerzv0vEKUpbXoOra8DTaWNK1899mBwrXBEyU_eZTltb1yjPYydU9FGilhwIAUBiSpFECgSjH8Gmp4nIM6OGNQo74mPwfYqf5ZWTGf9WyZt3kntOGUq-HNdbQMKP8QLa1f9Xu5K-ZVLp4gJmbyX-RHd2jGCH1QDjs3YP68IWBd0Fl4_b8LcUlEWoZgoA1rxveN6f7HnDDrZqWZfIqd69L2FRXE5QGqtRCdIck10GvHvgBXPSlDHYX6x4ErVOvSZpg0g0soJprdedHRYlgy6-iDEjUo8AH0YPUffyEnIU_5esvt17BpTfQy7L2St0veUNP-63L4v9Do2jMRPJAvNX5N68UrP8XGeRzIRBQUP3k9ntI1BPVrx5oXWeXCOXsvAOQi8mOKwrEXLSDDT2kOvmhak9skdkYk8BMmZ_vMk1gsRH_vmQXztW4S8-lc4RsAKKnhEVgHhxiEwujEaGoNhUs_Z5BK3RNf1htfsldLOhgwkfx-D8wdspyNlbrxdEz9F2zTREfn-ypgR-W9tvUrdtkq_q9blltR6dZhzUgbtR1mFzkXZc- -xNDfMps_-28lv9DOJnyK5Xhh758qmKkIuMuTRP-XXdvjXPo2Jz0Elhr1fvCVyIC_u54aUUuQTQqj20FjVB8UhNYgCFOvz6g5c1Niv6WzmlLmIC4gxmTttD85rHj-q2nu_D-zEmmeU1y949jr4goj3dEtiLvrMy_nLDspXm5IimFQLT61D5jXi5iAU7egEBX653Q0Q8Yysm4TI4tkWvRR1nJIRm3ZA7MFtJkWHi_LUD1GTbqeVFL56jGqxAcaBjH_]--></g></svg>